HIERARCHY
ROOT root
{
	OFFSET 0.000000 0.000000 0.000000
	CHANNELS 6 Xposition Yposition Zposition Zrotation Yrotation Xrotation
	JOINT lhip
	{
		OFFSET 0.058581 -0.082280 -0.017664
		CHANNELS 3 Zrotation Yrotation Xrotation
		JOINT lknee
		{
			OFFSET 0.043451 -0.386469 0.008037
			CHANNELS 3 Zrotation Yrotation Xrotation
			JOINT lankle
			{
				OFFSET -0.014790 -0.426874 -0.037428
				CHANNELS 3 Zrotation Yrotation Xrotation
				JOINT ltoe
				{
					OFFSET 0.041054 -0.060286 0.122042
					CHANNELS 3 Zrotation Yrotation Xrotation
					End Site
					{
						OFFSET 0.000000 0.000000 0.000000
					}
				}
			}
		}
	}
	JOINT rhip
	{
		OFFSET -0.060310 -0.090513 -0.013543
		CHANNELS 3 Zrotation Yrotation Xrotation
		JOINT rknee
		{
			OFFSET -0.043257 -0.383688 -0.004843
			CHANNELS 3 Zrotation Yrotation Xrotation
			JOINT rankle
			{
				OFFSET 0.019056 -0.420046 -0.034562
				CHANNELS 3 Zrotation Yrotation Xrotation
				JOINT rtoe
				{
					OFFSET -0.034840 -0.062106 0.130323
					CHANNELS 3 Zrotation Yrotation Xrotation
					End Site
					{
						OFFSET 0.000000 0.000000 0.000000
					}
				}
			}
		}
	}
	JOINT lowerback
	{
		OFFSET 0.004439 0.124404 -0.038385
		CHANNELS 3 Zrotation Yrotation Xrotation
		JOINT upperback
		{
			OFFSET 0.004488 0.137956 0.026820
			CHANNELS 3 Zrotation Yrotation Xrotation
			JOINT chest
			{
				OFFSET -0.002265 0.056032 0.002855
				CHANNELS 3 Zrotation Yrotation Xrotation
				JOINT lowerneck
				{
					OFFSET -0.013390 0.211636 -0.033468
					CHANNELS 3 Zrotation Yrotation Xrotation
					JOINT upperneck
					{
						OFFSET 0.010113 0.088937 0.050410
						CHANNELS 3 Zrotation Yrotation Xrotation
						End Site
						{
							OFFSET 0.000000 0.000000 0.000000
						}
					}
				}
				JOINT lclavicle
				{
					OFFSET 0.071702 0.114000 -0.018898
					CHANNELS 3 Zrotation Yrotation Xrotation
					JOINT lshoulder
					{
						OFFSET 0.122921 0.045205 -0.019046
						CHANNELS 3 Zrotation Yrotation Xrotation
						JOINT lelbow
						{
							OFFSET 0.255332 -0.015649 -0.022946
							CHANNELS 3 Zrotation Yrotation Xrotation
							JOINT lwrist
							{
								OFFSET 0.265709 0.012698 -0.007375
								CHANNELS 3 Zrotation Yrotation Xrotation
								End Site
								{
									OFFSET 0.000000 0.000000 0.000000
								}
							}
						}
					}
				}
				JOINT rclavicle
				{
					OFFSET -0.082954 0.112472 -0.023707
					CHANNELS 3 Zrotation Yrotation Xrotation
					JOINT rshoulder
					{
						OFFSET -0.113228 0.046853 -0.008472
						CHANNELS 3 Zrotation Yrotation Xrotation
						JOINT relbow
						{
							OFFSET -0.260127 -0.014369 -0.031269
							CHANNELS 3 Zrotation Yrotation Xrotation
							JOINT rwrist
							{
								OFFSET -0.269108 0.006794 -0.006027
								CHANNELS 3 Zrotation Yrotation Xrotation
								End Site
								{
									OFFSET 0.000000 0.000000 0.000000
								}
							}
						}
					}
				}
			}
		}
	}
}
MOTION
Frames: 13
Frame Time: 0.033333
-1.181196 0.345498 1.007171 96.904783 -0.239915 82.341554 -3.300171 2.200889 14.823632 -4.313036 -18.914279 7.829837 7.390195 10.742304 -18.022901 0.000000 -0.000000 0.000000 -4.693069 -2.858980 -26.535098 0.651176 -10.193598 12.944973 10.497958 -9.080240 -4.422396 0.000000 -0.000000 0.000000 -1.814886 -4.672823 18.893760 0.483587 -1.682443 -1.749558 0.360510 -2.837898 5.255521 5.262443 4.266267 -10.824498 -0.101498 -2.356708 4.225347 -23.861640 6.849850 0.272763 -51.588474 -11.869828 7.972794 7.951032 -37.030727 4.602716 -2.618320 -4.340341 -6.437010 30.295782 -5.162010 -0.138832 57.660007 0.214197 8.674284 -16.864429 8.194512 -16.374773 5.744449 -0.640939 -5.730452 
-1.158551 0.344751 1.003821 96.850660 -0.322423 82.709814 -3.034975 2.474742 15.957749 -4.307464 -19.394813 7.796095 7.548494 11.177275 -18.326431 0.000000 -0.000000 0.000000 -5.110481 -2.903402 -27.615594 0.706619 -11.044877 13.030794 10.537021 -10.070784 -4.562975 0.000000 -0.000000 0.000000 -1.664102 -4.850283 19.020727 0.511447 -1.059045 -1.669692 0.564289 -2.904658 5.340103 5.419524 4.171609 -11.482239 -0.053931 -2.287573 4.080325 -24.134490 7.005978 0.274371 -52.067382 -11.583244 8.067662 7.522098 -35.684576 5.316569 -2.798272 -4.357145 -5.898973 30.047814 -5.116742 -0.049236 57.242591 -0.041115 8.468804 -16.556586 7.501085 -16.740080 5.552544 -0.649401 -5.617110 
-1.135180 0.343317 1.001193 96.981572 -0.230937 83.022881 -2.380908 2.895475 17.410110 -4.135596 -20.105355 7.538420 7.277870 11.072209 -17.962872 0.000000 -0.000000 0.000000 -5.425732 -2.531279 -28.533262 0.436346 -11.564151 15.339080 10.079974 -10.779209 -4.361391 0.000000 -0.000000 0.000000 -1.350526 -5.225232 19.257984 0.716978 -0.502367 -1.449533 0.721986 -2.978137 5.200918 5.570278 3.629410 -11.576153 -0.270164 -2.414253 3.868037 -24.481184 6.907389 0.618804 -52.443756 -11.181886 8.036060 7.284777 -34.148736 5.778690 -3.161156 -3.985603 -5.476820 29.764403 -5.060381 -0.093869 56.853075 -0.235895 8.073546 -16.459750 6.955727 -17.208856 5.316755 -0.789713 -5.656343 
-1.110568 0.341837 0.999568 97.715593 -0.073693 83.749555 -1.687357 2.839361 18.276303 -4.057819 -20.743290 7.513696 6.774184 10.822891 -17.715616 0.000000 -0.000000 0.000000 -5.804883 -2.107186 -28.564966 0.450842 -11.095107 17.043428 9.688286 -10.531194 -4.558832 0.000000 -0.000000 0.000000 -0.670033 -5.758932 18.835195 0.970788 -0.549433 -1.251583 0.671159 -3.143884 5.097979 5.305530 4.042202 -11.686895 -0.572420 -1.882088 3.454885 -24.834602 7.029443 0.540624 -52.871286 -10.582077 8.107341 6.921408 -32.078850 6.549747 -3.421082 -3.895537 -5.074370 29.722512 -5.214843 -0.122023 56.212795 -0.241958 7.864656 -16.350930 6.748806 -17.457615 4.989629 -0.825519 -5.933972 
-1.085068 0.339824 0.998624 98.228986 -0.243704 84.792194 -1.312323 2.857935 18.555846 -4.191098 -20.873513 8.094549 6.488699 10.798353 -16.577737 0.000000 -0.000000 0.000000 -6.062161 -1.588396 -27.870708 0.800549 -9.240708 17.981115 9.374973 -9.462410 -4.561743 0.000000 -0.000000 0.000000 -0.347455 -5.884575 17.976654 1.379533 -0.818651 -0.947205 0.710927 -3.374398 4.946832 5.617606 3.502294 -11.344922 -0.542413 -2.085484 3.065454 -25.185268 6.903619 0.713357 -53.174340 -9.857911 8.137178 6.547964 -29.943573 6.948278 -3.584337 -3.582497 -4.510198 29.515073 -5.333596 -0.256910 55.582289 -0.273537 7.750370 -16.143618 6.947807 -17.032264 4.687096 -1.111269 -5.815500 
-1.056617 0.336218 0.998611 98.010032 -0.522698 86.232443 -1.022591 2.901623 18.722811 -4.277721 -21.037130 8.197563 5.561514 10.392870 -14.912686 0.000000 -0.000000 0.000000 -5.644318 -1.178522 -26.872958 1.136903 -7.762372 18.466443 9.168914 -8.382805 -4.198949 0.000000 -0.000000 0.000000 -0.131131 -5.851109 16.457290 1.665712 -1.012932 -0.726236 0.736848 -3.349267 4.705045 5.387093 3.628301 -10.992676 -0.748876 -1.738735 2.743425 -25.472238 7.130901 0.726694 -53.419468 -8.813526 8.269564 6.225630 -27.771648 7.501080 -4.030342 -3.281987 -4.030571 29.571577 -5.407647 -0.160192 55.001016 -0.275191 7.875519 -16.188054 6.910731 -16.422037 4.512097 -1.027390 -5.845806 
-1.029000 0.332385 1.001986 97.120444 -0.267259 87.590131 -0.741078 2.284859 18.174113 -4.296863 -20.588365 9.904293 4.613427 9.781091 -11.892566 0.000000 -0.000000 0.000000 -4.981018 -1.181101 -25.632453 1.752087 -8.466168 15.243253 9.894428 -8.126941 -0.386292 0.000000 -0.000000 0.000000 0.964127 -5.751082 15.703359 1.750450 -0.823627 -1.000343 0.654876 -3.090946 4.334709 5.150477 3.004074 -10.742503 -0.613664 -1.655100 2.670954 -26.239987 7.560091 0.661321 -53.302577 -8.129554 8.180589 5.894506 -25.833418 7.998671 -4.593827 -3.035719 -2.739585 29.530306 -5.527484 -0.199193 54.191833 -0.000936 7.741853 -15.618768 6.497538 -16.397226 4.093147 -0.922169 -5.790907 
-0.999165 0.328479 1.006770 95.147243 -0.135014 88.548595 -0.877164 2.307836 17.961383 -4.440540 -19.968273 11.576110 3.288570 9.373913 -8.839395 0.000000 -0.000000 0.000000 -4.377928 -0.617156 -25.250056 2.120751 -8.119458 15.688096 9.677122 -8.099273 1.999595 0.000000 -0.000000 0.000000 1.492994 -5.344168 14.984584 1.905905 0.188917 -1.000322 0.797459 -2.809794 4.008484 4.727327 2.752809 -10.472178 -0.722160 -1.022164 2.320719 -26.849061 7.443757 0.706942 -53.624432 -7.258518 8.300843 6.268212 -23.814333 7.808378 -5.119943 -2.774237 -2.196497 29.368615 -5.249868 0.241505 53.503602 0.233714 7.884509 -15.415022 6.363349 -16.358839 3.736140 -1.070084 -5.675411 
-0.969802 0.323547 1.012090 93.423369 0.355867 88.647766 -0.621675 2.074560 17.757452 -4.848561 -19.014292 14.685564 1.640404 9.003717 -4.213811 0.000000 -0.000000 0.000000 -3.479695 0.392036 -24.030814 2.697784 -7.520973 16.271615 8.669519 -7.334947 0.880196 0.000000 -0.000000 0.000000 2.128099 -4.819467 14.415598 2.273733 0.794732 0.635730 0.978436 -2.399173 3.706265 4.309675 2.913621 -11.385853 -1.027431 -1.013952 2.097016 -27.094548 6.778764 0.672809 -54.312813 -7.116841 8.511657 6.957221 -22.680250 7.062101 -5.522954 -2.608261 -2.070282 29.062387 -4.300710 0.406732 53.134443 1.009136 7.769407 -15.344841 6.216767 -16.375217 3.733147 -1.182052 -5.970723 
-0.938138 0.318375 1.017179 92.147159 0.414142 89.022893 -0.754659 1.888669 16.225810 -5.344650 -17.160166 18.910158 0.588164 8.593710 0.258829 0.000000 -0.000000 0.000000 -2.367159 0.846291 -22.784415 2.853856 -6.479833 16.667701 6.126445 -6.706132 0.249903 0.000000 -0.000000 0.000000 2.453706 -4.463394 13.609180 2.499820 0.876835 0.893823 0.944260 -2.202832 3.701392 4.110872 2.910954 -11.093588 -1.243720 -0.647756 2.020004 -27.343169 6.922861 0.559800 -54.344576 -6.629719 8.557245 7.021464 -22.336728 7.370551 -6.126102 -2.092154 -2.553098 29.093212 -3.571978 1.225813 52.664362 1.834500 8.132035 -15.317678 6.080350 -15.595331 3.707400 -1.300957 -5.878945 
-0.907452 0.312690 1.021031 91.475119 0.232442 89.199324 -0.567341 1.690246 13.495457 -6.225076 -14.529846 25.136974 0.303224 8.282052 4.205115 0.000000 -0.000000 0.000000 -1.236016 1.024857 -21.087885 2.451282 -5.703270 16.683784 3.249933 -6.564403 0.422074 0.000000 -0.000000 0.000000 2.357976 -3.975378 13.050887 2.681238 0.645099 0.956017 0.879800 -2.097651 3.580419 4.161695 2.490492 -10.739859 -0.927129 -0.424469 1.939857 -27.139718 6.874735 0.626788 -54.155901 -6.548298 8.615364 6.625840 -22.656942 8.219314 -6.828214 -2.238280 -2.854106 29.094566 -3.272158 1.216158 52.548650 2.495838 8.321883 -15.048678 6.209443 -14.888042 3.986279 -1.257959 -6.135420 
-0.879016 0.308050 1.022812 91.691735 -0.001688 89.236906 -0.491256 0.521796 9.864456 -6.492873 -11.502175 32.897660 3.188131 9.344139 5.522310 0.000000 -0.000000 0.000000 -0.597153 1.258216 -19.577325 2.071265 -5.335532 17.279529 0.900355 -7.262631 -0.643974 0.000000 -0.000000 0.000000 2.190698 -3.505658 12.618598 2.812833 0.257923 0.624319 0.761587 -2.003036 3.639994 4.543730 1.696687 -10.721440 -0.732851 -0.607501 2.564761 -26.790795 6.187798 1.465942 -53.911524 -7.027211 8.673679 6.687685 -24.205296 8.766738 -7.564274 -1.605221 -3.353660 29.194604 -2.786026 1.312457 52.659062 2.860732 8.454455 -15.345211 6.523801 -14.374637 4.550969 -1.486471 -6.332056 
-0.851052 0.304180 1.024871 92.142407 -0.137028 88.613591 -0.214716 -0.265892 6.721162 -7.888956 -9.894687 40.674088 3.470261 9.300985 3.840177 0.000000 -0.000000 0.000000 -0.326918 1.373740 -17.257866 2.046794 -5.087766 18.263326 0.063001 -7.708774 -2.787245 0.000000 -0.000000 0.000000 2.258490 -3.283906 13.071616 2.802710 -0.067915 0.321884 0.473740 -1.723771 3.494893 4.680454 1.105139 -10.821692 -0.536412 -0.913205 2.964548 -27.225199 5.341581 1.620789 -52.794982 -7.600966 8.550819 6.518838 -25.971239 8.738278 -7.296161 -1.705598 -3.426455 29.582755 -2.284359 0.594386 52.577624 2.804504 8.377979 -15.296304 6.901869 -13.973284 4.788017 -1.562224 -6.208117 
